<?xml version="1.0" encoding="UTF-8" standalone="no"?>
<svg
   xmlns:dc="http://purl.org/dc/elements/1.1/"
   xmlns:cc="http://creativecommons.org/ns#"
   xmlns:rdf="http://www.w3.org/1999/02/22-rdf-syntax-ns#"
   xmlns:svg="http://www.w3.org/2000/svg"
   xmlns="http://www.w3.org/2000/svg"
   viewBox="0 0 939.17334 255.16"
   height="28"
   width="104"
   xml:space="preserve"
   id="svg2"
   version="1.1"><metadata
     id="metadata8"><rdf:RDF><cc:Work
         rdf:about=""><dc:format>image/svg+xml</dc:format><dc:type
           rdf:resource="http://purl.org/dc/dcmitype/StillImage" /></cc:Work></rdf:RDF></metadata><defs
     id="defs6" /><g
     transform="matrix(1.3333333,0,0,-1.3333333,0,255.16)"
     id="g10"><g
       transform="scale(0.1)"
       id="g12"><path
         id="path14"
         style="fill:#73797e;fill-opacity:1;fill-rule:nonzero;stroke:none"
         d="m 2541.45,1385.72 216.06,-578.38 h -439.89 l 223.83,578.38 z M 2035.83,364.871 h 114.28 l 134.65,350.77 h 508.79 l 136.2,-350.77 h 114.27 L 2605.68,1493.25 H 2486.65 L 2035.83,364.871 v 0" /><path
         id="path16"
         style="fill:#73797e;fill-opacity:1;fill-rule:nonzero;stroke:none"
         d="m 3082.37,364.871 h 98.6 V 1493.25 h -98.6 V 364.871" /><path
         id="path18"
         style="fill:#73797e;fill-opacity:1;fill-rule:nonzero;stroke:none"
         d="m 3603.31,1180.31 h -159.62 v 71.11 c 0,22.15 0.48,42.69 1.54,61.62 1.03,19.02 4.94,35.58 11.73,49.83 6.76,14.2 17.46,25.52 32.06,33.98 14.61,8.41 35.49,12.64 62.66,12.64 11.45,0 22.96,-0.81 34.46,-2.37 11.4,-1.58 23.95,-3.42 37.5,-5.54 v 85.31 c -15.65,2.11 -29.69,3.74 -42.2,4.7 -12.57,1.06 -26.12,1.66 -40.74,1.66 -39.67,0 -72.28,-5.84 -97.86,-17.39 -25.58,-11.58 -45.69,-27.92 -60.27,-48.96 -14.62,-21.14 -24.47,-46.42 -29.76,-75.86 -5.18,-29.52 -7.83,-61.67 -7.83,-96.43 v -74.3 h -137.74 v -83.71 h 137.74 V 364.871 h 98.71 V 1096.6 h 159.62 v 83.71" /><path
         id="path20"
         style="fill:#73797e;fill-opacity:1;fill-rule:nonzero;stroke:none"
         d="m 3634.1,364.871 h 98.64 V 792.82 c 0,41.45 7.28,80.41 21.95,116.731 14.58,36.324 35.19,67.406 61.78,93.389 26.7,25.92 58.25,45.94 94.74,59.95 36.51,14.05 77.23,19.93 122.08,17.93 v 99.49 c -73.02,3.17 -135.91,-11.27 -188.64,-43.44 -52.66,-32.2 -91.51,-81.38 -116.61,-147.784 h -3.1 V 1180.31 H 3634.1 V 364.871" /><path
         id="path22"
         style="fill:#73797e;fill-opacity:1;fill-rule:nonzero;stroke:none"
         d="m 4080.45,829.512 c 4.16,33.879 12.73,66.976 25.84,99.32 13.07,32.523 30.46,61.094 52.41,85.708 21.92,24.64 48.53,44.53 79.92,59.45 31.25,15.03 67.23,22.61 107.96,22.61 39.65,0 75.11,-7.58 106.48,-22.61 31.31,-14.92 57.92,-34.81 79.83,-59.45 21.86,-24.614 38.84,-53.04 50.84,-84.849 12.01,-32.019 18.54,-65.39 19.61,-100.179 h -522.89 z m 621.49,-83.813 c 2.1,53.91 -3.12,107.141 -15.69,159.582 -12.44,52.5 -33.06,98.939 -61.81,139.439 -28.7,40.42 -65.96,73.17 -111.94,98.16 -45.89,24.97 -101.21,37.43 -165.92,37.43 -64.71,0 -120.03,-11.71 -165.96,-35.09 -45.92,-23.38 -83.51,-54.24 -112.72,-92.63 -29.16,-38.27 -50.86,-81.852 -64.99,-130.652 -14.03,-48.86 -21.1,-98.598 -21.1,-149.36 0,-54.75 7.07,-106.769 21.1,-156.058 14.13,-49.282 35.83,-92.598 64.99,-129.981 29.21,-37.328 66.8,-66.898 112.72,-88.828 45.93,-21.973 101.25,-32.84 165.96,-32.84 102.26,0 181.3,25.52 237.15,76.609 55.87,51.098 94.23,123.04 115.09,215.758 h -98.62 c -15.66,-62.207 -43.82,-112.5 -84.53,-150.968 -40.71,-38.411 -97.07,-57.661 -169.09,-57.661 -46.94,0 -87.37,9.243 -121.34,27.731 -33.9,18.551 -61.33,42.039 -82.21,70.308 -20.85,28.262 -36.52,60.051 -46.88,95.172 -10.52,35.129 -15.7,69.739 -15.7,103.879 h 621.49 v 0" /><path
         id="path24"
         style="fill:#73797e;fill-opacity:1;fill-rule:nonzero;stroke:none"
         d="m 5355.78,941.676 c -2.09,44.219 -10.97,82.704 -26.6,115.374 -15.67,32.62 -36.79,60.03 -63.34,82.16 -26.66,22.15 -57.48,38.48 -92.43,48.98 -34.99,10.57 -72.85,15.85 -113.51,15.85 -35.46,0 -71.2,-4.22 -107.24,-12.63 -36,-8.46 -68.58,-21.67 -97.76,-39.57 -29.34,-17.87 -53.07,-41.63 -71.3,-71.02 -18.26,-29.56 -27.45,-64.92 -27.45,-105.972 0,-34.789 5.73,-64.008 17.22,-87.746 11.48,-23.661 27.45,-43.704 47.74,-60.012 20.36,-16.36 44.12,-30.031 71.29,-41.121 27.12,-11.028 56.85,-20.77 89.21,-29.199 l 126.84,-28.442 c 21.88,-5.34 43.57,-11.558 64.96,-18.976 21.41,-7.352 40.44,-16.563 57.18,-27.661 16.69,-11.062 29.95,-25 39.89,-41.863 9.92,-16.84 14.91,-36.848 14.91,-60.109 0,-28.41 -7.11,-52.41 -21.12,-71.86 -14.15,-19.558 -32.19,-35.558 -54.03,-48.25 -21.95,-12.558 -45.99,-21.55 -72.05,-26.757 -26.05,-5.364 -50.64,-7.981 -73.62,-7.981 -65.75,0 -120.76,17.117 -165.14,51.379 -44.35,34.262 -68.64,85.102 -72.86,152.5 h -98.64 c 8.39,-100.148 42.09,-173.09 101.04,-218.879 59.01,-45.812 135.96,-68.723 230.93,-68.723 37.6,0 75.66,4.442 114.28,13.372 38.6,8.98 73.34,23.16 104.1,42.71 30.78,19.489 56.07,44.758 75.96,75.918 19.78,31.063 29.73,68.661 29.73,112.911 0,35.902 -6.77,66.961 -20.35,93.339 -13.55,26.274 -31.04,48.372 -52.45,66.301 -21.38,17.891 -45.91,32.41 -73.59,43.492 -27.6,11.02 -55.62,18.731 -83.73,22.899 l -131.53,30.058 c -16.69,4.18 -34.92,9.68 -54.79,16.563 -19.82,6.789 -38.12,15.551 -54.77,26.129 -16.71,10.422 -30.57,23.351 -41.56,38.664 -10.93,15.246 -16.3,33.973 -16.3,56.101 0,26.245 5.63,48.505 17.11,66.375 11.42,17.95 26.64,32.41 45.49,43.49 18.69,11.03 39.33,18.88 61.76,23.69 22.47,4.78 44.65,7.07 66.56,7.07 28.16,0 54.74,-3.33 79.87,-10.28 24.94,-6.79 47.22,-17.56 66.48,-32.38 19.3,-14.68 34.72,-33.41 46.2,-56.11 11.5,-22.601 17.69,-49.206 18.77,-79.784 h 98.64 v 0" /><path
         id="path26"
         style="fill:#73797e;fill-opacity:1;fill-rule:nonzero;stroke:none"
         d="m 6100.06,900.602 c -11.48,93.777 -47.25,163.848 -107.28,210.158 -60.1,46.37 -133.37,69.55 -219.95,69.55 -61.65,0 -116.14,-10.89 -163.64,-32.85 -47.5,-21.89 -87.46,-51.3 -119.8,-88.09 -32.32,-36.9 -56.8,-80.198 -73.52,-129.979 -16.7,-49.77 -25.07,-102.051 -25.07,-156.813 0,-55.75 8.37,-108.238 25.07,-157.566 16.72,-49.293 41.2,-92.332 73.52,-129.203 32.34,-36.879 72.3,-66.168 119.8,-88.098 47.5,-21.973 101.99,-32.84 163.64,-32.84 90.77,0 165.61,27.938 224.59,83.738 59.01,55.832 95.28,133.25 108.83,232.301 h -98.62 c -3.09,-33.73 -11.51,-64.789 -25.06,-93.211 -13.6,-28.469 -30.83,-52.937 -51.59,-73.519 -20.9,-20.539 -44.98,-36.649 -72.07,-48.18 -27.07,-11.629 -55.87,-17.391 -86.08,-17.391 -47.01,0 -88.26,9.34 -123.75,27.911 -35.51,18.652 -64.92,43.218 -88.41,73.679 -23.47,30.422 -41.2,65.09 -53.25,103.781 -11.98,38.829 -18.03,78.372 -18.03,118.598 0,40.301 6.05,79.731 18.03,118.57 12.05,38.692 29.78,73.356 53.25,103.782 23.49,30.46 52.9,55 88.41,73.65 35.49,18.7 76.74,28.02 123.75,28.02 64.65,0 115.57,-17.4 152.58,-52.14 37.15,-34.83 62.37,-82.757 75.97,-143.858 h 98.68 v 0" /><path
         id="path28"
         style="fill:#73797e;fill-opacity:1;fill-rule:nonzero;stroke:none"
         d="m 6523.66,1096.6 c 46.97,0 88.25,-9.32 123.68,-28.02 35.49,-18.65 64.95,-43.19 88.5,-73.65 23.46,-30.426 41.22,-65.09 53.22,-103.782 11.95,-38.839 18.04,-78.269 18.04,-118.57 0,-40.226 -6.09,-79.769 -18.04,-118.598 -12,-38.691 -29.76,-73.359 -53.22,-103.781 -23.55,-30.461 -53.01,-55.027 -88.5,-73.679 -35.43,-18.571 -76.71,-27.911 -123.68,-27.911 -46.96,0 -88.2,9.34 -123.63,27.911 -35.5,18.652 -64.96,43.218 -88.56,73.679 -23.36,30.422 -41.17,65.09 -53.15,103.781 -11.99,38.829 -17.96,78.372 -17.96,118.598 0,40.301 5.97,79.731 17.96,118.57 11.98,38.692 29.79,73.356 53.15,103.782 23.6,30.46 53.06,55 88.56,73.65 35.43,18.7 76.67,28.02 123.63,28.02 z m 0,83.71 c -61.55,0 -116.08,-10.89 -163.61,-32.85 -47.45,-21.89 -87.41,-51.3 -119.69,-88.09 -32.43,-36.9 -56.9,-80.198 -73.62,-129.979 -16.67,-49.77 -25.06,-102.051 -25.06,-156.813 0,-55.75 8.39,-108.238 25.06,-157.566 16.72,-49.293 41.19,-92.332 73.62,-129.203 32.28,-36.879 72.24,-66.168 119.69,-88.098 47.53,-21.973 102.06,-32.84 163.61,-32.84 61.64,0 116.16,10.867 163.63,32.84 47.5,21.93 87.42,51.219 119.81,88.098 32.31,36.871 56.85,79.91 73.53,129.203 16.68,49.328 25.06,101.816 25.06,157.566 0,54.762 -8.38,107.043 -25.06,156.813 -16.68,49.781 -41.22,93.079 -73.53,129.979 -32.39,36.79 -72.31,66.2 -119.81,88.09 -47.47,21.96 -101.99,32.85 -163.63,32.85 v 0" /><path
         id="path30"
         style="fill:#73797e;fill-opacity:1;fill-rule:nonzero;stroke:none"
         d="m 6964.1,1130.2 c 13.54,0 26.78,0.43 26.78,15.91 0,12.68 -10.41,15.65 -21.15,15.65 h -20.07 v -31.56 z m -14.44,-49.89 h -11.06 v 90.96 h 34.18 c 20.14,0 29.09,-8.86 29.09,-25.16 0,-16.14 -10.38,-23.31 -22.38,-25.38 l 26.49,-40.42 h -12.78 l -25.15,40.42 h -18.39 z m -48.14,45.51 c 0,-37.66 27.71,-67.51 65.1,-67.51 37.35,0 65.17,29.85 65.17,67.51 0,37.58 -27.82,67.41 -65.17,67.41 -37.39,0 -65.1,-29.83 -65.1,-67.41 z m 142.23,0 c 0,-44.26 -33.54,-78.69 -77.13,-78.69 -43.6,0 -77.17,34.43 -77.17,78.69 0,44.12 33.57,78.66 77.17,78.66 43.59,0 77.13,-34.54 77.13,-78.66" /><path
         id="path32"
         style="fill:#ffffff;fill-opacity:1;fill-rule:nonzero;stroke:none"
         d="m 938.328,956.355 -264.656,270.165 -9.609,9.84 c -151.688,155.21 -398.887,155.21 -549.848,0.6 -152.1994,-154.48 -152.1994,-405.722 0,-560.382 150.961,-155.066 397.504,-155.066 549.137,0 l 274.976,279.777" /><path
         id="path34"
         style="fill:#ffffff;fill-opacity:1;fill-rule:nonzero;stroke:none"
         d="M 938.328,956.723 V 575.109 l 0.559,-14.027 c 0,-218.793 -174.27,-397.211 -389.102,-397.211 -214.836,0 -389.086,177.301 -389.086,396.098 0,219.051 174.899,396.754 389.086,396.754 h 388.543" /><path
         id="path36"
         style="fill:#ffffff;fill-opacity:1;fill-rule:nonzero;stroke:none"
         d="M 938.328,956.723 V 575.109 l 0.559,-14.027 c 0,-218.793 -174.27,-397.211 -389.102,-397.211 -214.836,0 -389.086,177.301 -389.086,396.098 0,219.051 174.899,396.754 389.086,396.754 h 388.543" /><path
         id="path38"
         style="fill:#ffffff;fill-opacity:1;fill-rule:nonzero;stroke:none"
         d="M 938.328,956.723 V 575.109 l 0.559,-14.027 c 0,-218.793 -174.27,-397.211 -389.102,-397.211 -214.836,0 -389.086,177.301 -389.086,396.098 0,24.39 2.563,48.019 6.555,70.75 151.601,-107.617 361.297,-92.348 496.098,45.75 l 274.976,279.886 v 0.368" /><path
         id="path40"
         style="fill:#7dc729;fill-opacity:1;fill-rule:nonzero;stroke:none"
         d="m 549.785,906.711 c -187.195,0 -339.371,-155.223 -339.371,-346.742 0,-190.789 152.176,-345.66 339.371,-345.66 187.832,0 339.442,154.871 339.442,345.66 V 906.711 H 549.785" /><path
         id="path42"
         style="fill:#ffffff;fill-opacity:1;fill-rule:nonzero;stroke:none"
         d="m 938.328,956.723 264.452,-269.692 10.88,-9.84 c 151.07,-155 151.77,-406.632 0,-561.179 -152.2,-154.6917 -398.062,-154.6917 -550.308,0 -151.633,154.547 -151.633,405.898 0,560.84 l 274.976,279.871" /><path
         id="path44"
         style="fill:#7dc729;fill-opacity:1;fill-rule:nonzero;stroke:none"
         d="m 698.828,641.27 c -132.836,-135.149 -132.836,-354.731 0,-489.508 132.219,-135.1917 347.242,-135.1917 480.072,0 132.27,134.777 132.27,354.359 0,489.508 l -11.05,10.128 -229.522,234.352 -239.5,-244.031 v -0.449" /><path
         id="path46"
         style="fill:#ffffff;fill-opacity:1;fill-rule:nonzero;stroke:none"
         d="m 938.328,956.723 h 374.732 l 13.63,0.664 c 214.9,0 389.14,-177.625 389.14,-396.676 0,-219.18 -173.66,-396.09 -388.49,-396.09 -214.85,0 -389.012,177.219 -389.012,396.09 v 396.012" /><path
         id="path48"
         style="fill:#7dc729;fill-opacity:1;fill-rule:nonzero;stroke:none"
         d="m 987.926,560.711 c 0,-191.262 151.564,-346.141 339.414,-346.141 187,0 338.62,154.879 338.62,346.141 0,191.508 -151.62,346 -338.62,346 H 987.926 v -346" /><path
         id="path50"
         style="fill:#ffffff;fill-opacity:1;fill-rule:nonzero;stroke:none"
         d="m 938.328,956.723 264.452,270.067 10.26,10.17 c 151.69,154.61 398.09,155.24 549.76,0.7 151.7,-155 151.7,-405.851 0,-560.808 -151.67,-154.942 -398.07,-154.942 -549.76,0 L 938.328,956.723" /><path
         id="path52"
         style="fill:#7dc729;fill-opacity:1;fill-rule:nonzero;stroke:none"
         d="m 1248.5,712.68 c 131.67,-135.551 346.56,-135.551 479.43,0 132.95,134.922 132.95,353.9 0,489.17 -132.87,135.13 -347.76,135.13 -479.43,0 l -10.89,-10.56 -229.11,-234.567 238.78,-243.754 1.22,-0.289" /><path
         id="path54"
         style="fill:#ffffff;fill-opacity:1;fill-rule:nonzero;stroke:none"
         d="m 938.328,956.723 v 396.117 c 0,218.62 173.472,396.64 389.012,396.64 214.25,0 387.79,-176.85 387.79,-395.99 0,-219.09 -173.54,-396.767 -387.79,-396.767 H 938.328" /><path
         id="path56"
         style="fill:#f79427;fill-opacity:1;fill-rule:nonzero;stroke:none"
         d="m 1327.34,1007.07 c 187,0 338.62,154.96 338.62,346.37 0,190.69 -151.62,346 -338.62,346 -187.85,0 -340.11,-155.31 -340.11,-346 l 0.696,-14.82 v -331.55 h 339.414" /><path
         id="path58"
         style="fill:#ffffff;fill-opacity:1;fill-rule:nonzero;stroke:none"
         d="m 938.328,956.723 -264.656,270.067 -10.32,9.57 c -151.633,155.21 -151.633,406.6 0,561.18 150.992,154.88 397.528,154.88 549.688,0 151.69,-154.58 151.69,-405.97 0,-560.58 L 938.328,956.723" /><path
         id="path60"
         style="fill:#3a7fca;fill-opacity:1;fill-rule:nonzero;stroke:none"
         d="m 1178.21,1269.22 c 132.2,135.19 132.2,354.6 0,489.6 -132.79,135.07 -347.163,135.07 -479.983,0 -132.922,-135 -132.922,-354.41 0,-489.6 l 9.675,-10.37 230.426,-233.95 239.162,243.73 0.72,0.59" /><path
         id="path62"
         style="fill:#ffffff;fill-opacity:1;fill-rule:nonzero;stroke:none"
         d="M 938.328,953.488 H 563.93 l -14.145,-0.383 c -214.187,0 -389.086,177.695 -389.086,396.665 0,218.79 174.25,396.43 388.43,396.43 214.859,0 389.199,-177.64 389.199,-396.58 V 953.488" /><path
         id="path64"
         style="fill:#3a7fca;fill-opacity:1;fill-rule:nonzero;stroke:none"
         d="m 889.168,1349.62 c 0,191.24 -151.613,346 -340.039,346 -187.082,0 -339.289,-154.76 -339.289,-345.74 0,-191.12 152.207,-346.42 339.289,-346.42 l 14.801,0.39 h 325.238 v 345.77" /><path
         id="path66"
         style="fill:#ffffff;fill-opacity:1;fill-rule:nonzero;stroke:none"
         d="M 938.328,953.488 0,953.105 c 0,101.355 37.3984,202.925 114.215,280.625 150.961,154.59 397.504,154.59 549.137,0 L 938.328,953.488" /><path
         id="path68"
         style="fill:#3a7fca;fill-opacity:1;fill-rule:nonzero;stroke:none"
         d="M 628.508,1198.15 868.559,953.488 H 549.785 c -172.265,0 -318.777,-114.5 -369.648,-273.609 -10.383,9.172 -21.379,18.492 -30.969,28.922 -132.9375,135.199 -132.9375,353.839 0,489.349 131.551,134.99 347.125,134.99 479.34,0" /><path
         id="path70"
         style="fill:#2b5aac;fill-opacity:1;fill-rule:nonzero;stroke:none"
         d="m 629.109,1197.86 189.969,-193.8 -270.187,-0.84 c -155.512,0 -286.645,106.53 -326.426,251.99 128.984,73.73 297.918,56.01 406.043,-57.06 l 0.601,-0.29" /><path
         id="path72"
         style="fill:#2b5aac;fill-opacity:1;fill-rule:nonzero;stroke:none"
         d="m 889.281,1348.93 -0.277,-274.13 -190.703,194.47 c -109.821,112.22 -129.16,281.97 -56.86,413.53 142.571,-40.72 247.84,-174.34 247.84,-333.14 v -0.73" /><path
         id="path74"
         style="fill:#2b5aac;fill-opacity:1;fill-rule:nonzero;stroke:none"
         d="m 986.461,1074.19 v 274.98 c 0,158.46 105.099,292.3 247.849,333.36 72.19,-131.93 58.61,-297.3 -54.7,-411.65 L 986.461,1074.19" /><path
         id="path76"
         style="fill:#fae033;fill-opacity:1;fill-rule:nonzero;stroke:none"
         d="m 1057.33,1006.93 190.53,194.79 c 109.76,112.13 276.42,131.08 405.53,57.47 -40.76,-145.37 -165.1,-249.81 -318.15,-252.36 l -277.91,0.1" /><path
         id="path78"
         style="fill:#46ab3d;fill-opacity:1;fill-rule:nonzero;stroke:none"
         d="m 1057.3,906.91 h 269.66 c 155.52,0 286.53,-105.898 326.58,-251.621 -129.78,-73.98 -296.36,-54.59 -406.6,57.492 L 1057.3,906.91" /><path
         id="path80"
         style="fill:#46ab3d;fill-opacity:1;fill-rule:nonzero;stroke:none"
         d="M 987.895,562.539 V 836.191 L 1178.9,642.039 C 1288.73,529.621 1307.32,359.059 1235.12,227.5 1092.49,268.398 987.895,402.57 987.895,561.23 v 1.309" /><path
         id="path82"
         style="fill:#46ab3d;fill-opacity:1;fill-rule:nonzero;stroke:none"
         d="m 699.277,641.93 189.844,193.609 0.426,-275.078 c 0,-158.57 -104.445,-291.82 -247.067,-332.93 -72.25,131.821 -52.91,301.969 56.797,413.848 v 0.551" /><path
         id="path84"
         style="fill:#46ab3d;fill-opacity:1;fill-rule:nonzero;stroke:none"
         d="M 551.711,906.82 H 820.152 L 629.793,712.398 C 520.203,600.41 352.238,581.09 223.332,654.73 263.867,800.531 395.027,906.82 550.527,906.82 h 1.184" /></g></g></svg>
